<mxfile host="app.diagrams.net" modified="2023-10-10T22:55:33.161Z" agent="Mozilla/5.0 (Macintosh; Intel Mac OS X 10_15_7) AppleWebKit/537.36 (KHTML, like Gecko) Chrome/117.0.0.0 Safari/537.36" version="22.0.4" etag="ly5ToQs0tk8Mwy8tZsIL" type="github">
  <diagram name="Page-1" id="m1nK12FQX6oS-gh8VTXA">
    <mxGraphModel>
      <root>
        <mxCell id="0" />
        <mxCell id="1" parent="0" />
      </root>
    </mxGraphModel>
  </diagram>
</mxfile>
